<?xml version="1.0" encoding="UTF-8"?>
<svg id="Layer_1" data-name="Layer 1" xmlns="http://www.w3.org/2000/svg" viewBox="0 0 2194.9 546.94">
  <defs>
    <style>
      .cls-1 {
        fill: #fff;
      }

      .cls-2 {
        fill: none;
        stroke: #fff;
        stroke-width: 8.41px;
      }
    </style>
  </defs>
  <g>
    <path class="cls-2" d="m139.47,12.53c-12.78-5.55-27.49-8.32-44.14-8.32-18.24,0-34.22,3.7-47.92,11.18-13.7,7.48-24.3,17.99-31.86,31.61-7.57,13.62-11.35,29.68-11.35,48.09s3.78,34.47,11.35,48.09c7.57,13.62,18.16,24.13,31.86,31.61s29.68,11.18,47.92,11.18c16.65,0,31.36-2.77,44.14-8.32,12.69-5.55,22.7-13.45,29.76-23.88,7.15-10.34,10.68-22.53,10.68-36.65v-3.45h-31.36v3.45c0,13.53-4.37,23.79-13.03,30.85-8.66,7.06-22.03,10.51-39.93,10.51-13.87,0-25.3-2.27-34.38-6.73-9.08-4.46-15.8-11.43-20.26-20.85-4.46-9.42-6.73-21.35-6.73-35.98s2.27-26.82,6.73-36.06c4.46-9.33,11.26-16.22,20.26-20.68,9.08-4.46,20.51-6.73,34.38-6.73,17.91,0,31.19,3.53,39.93,10.51,8.66,7.06,13.03,17.32,13.03,30.85v3.45h31.36v-3.45c0-14.21-3.53-26.48-10.68-36.74-7.15-10.26-17.07-18.16-29.76-23.71v.17Z"/>
    <path class="cls-2" d="m229.42,109.88c0-11.6,2.44-20.43,7.4-26.65,4.88-6.14,13.03-9.25,24.21-9.25,9.84,0,16.9,2.19,21.1,6.56,4.2,4.37,6.31,11.35,6.31,20.85v11.6h28.16v-17.15c0-8.24-1.43-15.89-4.37-22.95-2.94-7.06-7.48-12.61-13.87-16.9-6.31-4.2-14.46-6.31-24.55-6.31-9,0-16.56,1.68-22.78,5.04s-11.18,7.9-14.88,13.53c-3.7,5.72-6.14,12.19-7.4,19.34h-1.85v-35.31h-26.06v130.98h28.5v-73.56l.08.17Z"/>
    <path class="cls-2" d="m363,178.14c10.68,5.3,23.2,7.9,37.41,7.9,13.03,0,24.46-2.02,34.38-5.97s17.74-9.5,23.45-16.65,8.57-15.3,8.57-24.63v-2.35h-28.5v2.1c0,7.73-3.03,13.79-9.08,18.07-6.05,4.29-15.97,6.47-29.68,6.47-15.8,0-27.07-3.61-33.71-10.84-6.05-6.56-9.25-15.97-9.84-27.91h110.97c.34-1.93.59-3.87.76-5.97.17-2.02.25-4.2.25-6.47,0-13.37-2.86-24.63-8.57-33.88-5.72-9.25-13.7-16.22-23.96-21.1-10.26-4.79-22.19-7.23-35.73-7.23-14.21,0-26.65,2.86-37.16,8.57-10.51,5.72-18.75,13.62-24.63,23.88-5.88,10.17-8.83,22.11-8.83,35.81,0,14.38,2.94,26.73,8.83,36.91,5.88,10.17,14.21,17.91,24.88,23.2l.17.08Zm2.86-95.16c6.64-7.23,17.82-10.84,33.46-10.84,14.04,0,24.55,2.94,31.53,8.83,6.98,5.88,10.42,14.88,10.42,26.99v.5h-84.99c.84-10.76,3.95-19.42,9.67-25.56l-.08.08Z"/>
    <path class="cls-2" d="m613.35,183.35v-79.61c0-10.51-2.19-19.84-6.47-27.91-4.29-8.07-10.93-14.46-19.76-19.08-8.91-4.62-20.26-6.98-34.13-6.98s-25.81,2.27-35.73,6.89c-9.92,4.62-17.49,10.76-22.78,18.58-5.3,7.82-7.9,16.73-7.9,26.73v1.09h28.16v-1.09c0-9.67,3.03-16.56,9-20.85,5.97-4.2,15.05-6.31,27.15-6.31s21.52,2.19,26.73,6.47,7.73,11.94,7.73,22.78v7.65l-59.52,6.31c-8.57,1.09-16.06,2.86-22.36,5.55s-11.18,6.31-14.63,10.93c-3.45,4.62-5.13,10.42-5.13,17.23,0,10.68,4.04,19.08,12.02,25.14s18.75,9.08,32.28,9.08c14.96,0,27.32-3.11,37.33-9.33,9.92-6.22,16.65-14.88,20.18-25.98h1.85v32.7h26.06-.08Zm-51.62-21.77c-7.4,2.52-16.06,3.78-26.06,3.78-8.07,0-14.04-1.26-17.82-3.78-3.78-2.52-5.63-6.47-5.63-11.77s1.77-8.74,5.38-10.93c3.61-2.19,9.08-3.7,16.48-4.62l51.36-5.8c0,8.57-2.1,15.64-6.31,21.02-4.2,5.46-10,9.42-17.4,12.02v.08Z"/>
    <path class="cls-2" d="m724.57,157.79h-23.71c-8.07,0-14.04-1.35-17.91-4.12-3.87-2.69-5.8-8.15-5.8-16.22v-61.37h47.41v-23.71h-47.41v-28.75h-28.16v28.75h-22.11v23.71h22.11v62.97c0,15.8,4.12,27.15,12.27,33.96s19.25,10.26,33.37,10.26h30.01v-25.56l-.08.08Z"/>
    <rect class="cls-2" x="742.48" y="52.46" width="28.5" height="130.98"/>
    <rect class="cls-2" x="742.48" y="6.81" width="28.5" height="30.26"/>
    <path class="cls-2" d="m825.71,118.53c0-14.21,3.36-24.97,10.17-32.28,6.73-7.31,17.23-10.93,31.53-10.93s23.45,3.11,29.42,9.25c5.88,6.14,8.83,15.38,8.83,27.66v71.12h28.41v-78.77c0-10.17-1.93-19.42-5.97-27.66-3.95-8.24-10-14.88-18.07-19.76s-18.16-7.4-30.26-7.4c-11.1,0-20.43,2.1-28.08,6.22-7.65,4.12-13.62,9.5-17.91,16.06s-7.15,13.53-8.57,20.93h-1.85v-40.6h-26.06v130.98h28.41s0-64.82,0-64.82Z"/>
    <path class="cls-2" d="m1089.76,203.78c5.8-9.25,8.66-21.1,8.66-35.73V52.46h-26.06v32.7h-1.6c-2.27-11.43-8.24-20.18-17.82-26.23-9.58-6.05-21.18-9.08-34.89-9.08s-24.55,2.52-34.13,7.65c-9.58,5.13-16.98,12.19-22.11,21.35-5.21,9.16-7.73,19.76-7.73,31.86s2.52,22.78,7.48,31.86c5.04,9.16,12.11,16.22,21.35,21.35s20.34,7.65,33.29,7.65c14.96,0,26.82-3.19,35.56-9.5s14.29-14.46,16.56-24.55h1.85v32.11c0,9.67-1.35,17.23-3.95,22.7-2.61,5.46-6.89,9.25-12.78,11.43s-13.87,3.28-23.87,3.28c-9.33,0-16.81-.84-22.53-2.52-5.72-1.68-9.84-4.46-12.53-8.32-2.61-3.87-3.95-9-3.95-15.3h-28.16c0,10.51,2.77,19.5,8.32,26.9,5.55,7.4,13.2,13.03,23.03,16.98,9.84,3.95,21.27,5.97,34.22,5.97,14.21,0,26.65-2.19,37.16-6.56,10.51-4.37,18.75-11.18,24.55-20.43h.08Zm-31.1-65.74c-7.73,5.97-18.83,9-33.21,9-9,0-16.65-1.18-23.03-3.53-6.39-2.35-11.26-6.22-14.63-11.43-3.36-5.3-4.96-12.36-4.96-21.35s1.68-16.31,5.13-21.44c3.45-5.21,8.41-8.91,15.05-11.18,6.56-2.27,14.38-3.45,23.29-3.45s17.23,1.26,23.71,3.7c6.47,2.44,11.52,6.22,15.05,11.18,3.53,5.04,5.3,11.18,5.3,18.58v3.7c0,11.6-3.87,20.34-11.6,26.31l-.08-.08Z"/>
    <path class="cls-2" d="m1299.93,12.53c-12.78-5.55-27.49-8.32-44.14-8.32-18.24,0-34.3,3.7-48,11.18-13.7,7.48-24.3,17.99-31.86,31.61-7.57,13.62-11.35,29.68-11.35,48.09s3.78,34.47,11.35,48.09c7.57,13.62,18.16,24.13,31.86,31.61s29.68,11.18,48,11.18c16.65,0,31.36-2.77,44.14-8.32,12.69-5.55,22.7-13.45,29.76-23.88,7.15-10.34,10.68-22.53,10.68-36.65v-3.45h-31.36v3.45c0,13.53-4.37,23.79-13.03,30.85-8.66,7.06-22.03,10.51-39.93,10.51-13.87,0-25.3-2.27-34.38-6.73-9.08-4.46-15.8-11.43-20.26-20.85-4.46-9.42-6.73-21.35-6.73-35.98s2.27-26.82,6.73-36.06c4.46-9.33,11.26-16.22,20.26-20.68s20.51-6.73,34.38-6.73c17.91,0,31.19,3.53,39.93,10.51,8.74,7.06,13.03,17.32,13.03,30.85v3.45h31.36v-3.45c0-14.21-3.53-26.48-10.68-36.74-7.15-10.26-17.07-18.16-29.76-23.71v.17Z"/>
    <path class="cls-2" d="m1466.8,58.34c-10.93-5.72-23.71-8.57-38.5-8.57s-27.07,2.86-38.08,8.57-19.5,13.62-25.56,23.88c-6.05,10.17-9.08,22.11-9.08,35.81s3.03,25.14,9.08,35.48c6.05,10.34,14.54,18.24,25.56,23.96,11.01,5.72,23.71,8.57,38.08,8.57s27.57-2.86,38.5-8.57c10.84-5.72,19.34-13.7,25.39-23.96,6.05-10.26,9.08-22.11,9.08-35.48s-3.03-25.64-9.08-35.81c-6.05-10.17-14.54-18.16-25.39-23.88Zm-3.95,91.46c-7.06,7.31-18.58,10.93-34.55,10.93s-27.24-3.61-34.3-10.93c-7.06-7.31-10.51-17.91-10.51-31.78s3.53-24.55,10.51-32.03c6.98-7.48,18.41-11.18,34.3-11.18s27.49,3.7,34.55,11.18c7.06,7.48,10.51,18.16,10.51,32.03s-3.53,24.46-10.51,31.78Z"/>
    <path class="cls-2" d="m1550.36,118.53c0-14.21,3.36-24.97,10.17-32.28,6.73-7.31,17.23-10.93,31.53-10.93s23.45,3.11,29.42,9.25c5.88,6.14,8.83,15.38,8.83,27.66v71.12h28.41v-78.77c0-10.17-1.93-19.42-5.97-27.66-3.95-8.24-10-14.88-18.07-19.76-8.07-4.88-18.16-7.4-30.26-7.4-11.1,0-20.43,2.1-28.08,6.22-7.65,4.12-13.62,9.5-17.91,16.06-4.29,6.56-7.15,13.53-8.57,20.93h-1.85v-40.6h-26.06v130.98h28.41v-64.82Z"/>
    <path class="cls-2" d="m1706.47,173.09c8.15,6.81,19.25,10.26,33.29,10.26h30.01v-25.56h-23.71c-8.07,0-14.04-1.35-17.91-4.12-3.87-2.69-5.8-8.15-5.8-16.22v-61.37h47.41v-23.71h-47.41v-28.75h-28.16v28.75h-22.11v23.71h22.11v62.97c0,15.8,4.12,27.15,12.27,33.96v.08Z"/>
    <path class="cls-2" d="m1816.27,178.14c10.68,5.3,23.2,7.9,37.41,7.9,13.03,0,24.46-2.02,34.38-5.97,9.92-3.95,17.74-9.5,23.45-16.65,5.72-7.15,8.57-15.3,8.57-24.63v-2.35h-28.5v2.1c0,7.73-3.03,13.79-9.08,18.07s-15.97,6.47-29.68,6.47c-15.8,0-27.07-3.61-33.71-10.84-6.05-6.56-9.25-15.97-9.75-27.91h110.97c.34-1.93.59-3.87.76-5.97.17-2.02.25-4.2.25-6.47,0-13.37-2.86-24.63-8.57-33.88-5.72-9.25-13.7-16.22-23.96-21.1-10.26-4.88-22.19-7.23-35.73-7.23-14.21,0-26.65,2.86-37.16,8.57-10.51,5.72-18.75,13.62-24.63,23.88-5.88,10.17-8.83,22.11-8.83,35.81,0,14.38,2.94,26.73,8.83,36.91,5.88,10.17,14.21,17.91,24.88,23.2l.08.08Zm2.86-95.16c6.64-7.23,17.82-10.84,33.46-10.84,14.04,0,24.55,2.94,31.53,8.83,6.98,5.88,10.42,14.88,10.42,26.99v.5h-84.99c.84-10.76,3.95-19.42,9.67-25.56l-.08.08Z"/>
    <path class="cls-2" d="m2055.52,57.17c-8.07-4.88-18.16-7.4-30.26-7.4-11.1,0-20.43,2.1-28.08,6.22-7.65,4.12-13.62,9.5-17.91,16.06-4.29,6.56-7.15,13.53-8.57,20.93h-1.85v-40.6h-26.06v130.98h28.41v-64.82c0-14.21,3.36-24.97,10.17-32.28,6.73-7.31,17.23-10.93,31.53-10.93s23.45,3.11,29.42,9.25c5.88,6.14,8.83,15.38,8.83,27.66v71.12h28.41v-78.77c0-10.17-1.93-19.42-5.97-27.66-3.95-8.24-10-14.88-18.07-19.76Z"/>
    <path class="cls-2" d="m2190.7,76.16v-23.71h-47.41v-28.75h-28.16v28.75h-22.11v23.71h22.11v62.97c0,15.8,4.12,27.15,12.27,33.96s19.25,10.26,33.29,10.26h30.01v-25.56h-23.71c-8.07,0-14.04-1.35-17.91-4.12-3.87-2.69-5.8-8.15-5.8-16.22v-61.37h47.41v.08Z"/>
  </g>
  <g>
    <polygon class="cls-1" points="275.91 323.07 206.38 323.07 206.38 348.63 275.91 348.63 275.91 499.61 304.15 499.61 304.15 348.63 373.43 348.63 373.43 323.07 304.15 323.07 275.91 323.07"/>
    <path class="cls-1" d="m491.03,373.26c-10.26-4.79-22.19-7.23-35.73-7.23-14.21,0-26.65,2.86-37.16,8.57-10.51,5.72-18.75,13.62-24.63,23.88-5.88,10.17-8.83,22.11-8.83,35.81,0,14.38,2.94,26.73,8.83,36.91,5.88,10.17,14.21,17.91,24.88,23.2,10.68,5.3,23.2,7.9,37.41,7.9,13.03,0,24.46-2.02,34.38-5.97,9.92-3.95,17.74-9.5,23.45-16.65s8.57-15.3,8.57-24.63v-2.35h-28.5v2.1c0,7.73-3.03,13.79-9.08,18.07-6.05,4.29-15.97,6.47-29.68,6.47-15.8,0-27.07-3.61-33.71-10.84-6.05-6.56-9.25-15.97-9.84-27.91h110.97c.34-1.93.59-3.87.76-5.97.17-2.02.25-4.2.25-6.47,0-13.37-2.86-24.63-8.57-33.88s-13.7-16.22-23.96-21.1l.17.08Zm-69.69,25.98c6.64-7.23,17.82-10.84,33.46-10.84,14.04,0,24.55,2.94,31.53,8.83,6.98,5.88,10.42,14.88,10.42,26.99v.5h-84.99c.84-10.76,3.95-19.42,9.67-25.56l-.08.08Z"/>
    <rect class="cls-1" x="544.92" y="323.07" width="28.5" height="176.54"/>
    <rect class="cls-1" x="599.73" y="323.07" width="28.5" height="176.54"/>
    <rect class="cls-1" x="654.55" y="323.07" width="28.5" height="30.26"/>
    <rect class="cls-1" x="654.55" y="368.63" width="28.5" height="130.98"/>
    <path class="cls-1" d="m822.17,373.34c-8.07-4.88-18.16-7.4-30.26-7.4-11.1,0-20.43,2.1-28.08,6.22-7.65,4.12-13.62,9.5-17.91,16.06-4.29,6.56-7.15,13.53-8.57,20.93h-1.85v-40.6h-26.06v130.98h28.5v-64.82c0-14.21,3.36-24.97,10.17-32.28,6.73-7.31,17.23-10.93,31.53-10.93s23.45,3.11,29.34,9.25c5.88,6.14,8.83,15.38,8.83,27.66v71.12h28.41v-78.77c0-10.17-1.93-19.42-5.97-27.66-3.95-8.24-10-14.88-18.07-19.76Z"/>
    <path class="cls-1" d="m984.51,401.34h-1.6c-2.27-11.43-8.24-20.18-17.82-26.23-9.58-6.05-21.18-9.08-34.89-9.08s-24.55,2.52-34.13,7.65-16.98,12.19-22.11,21.35c-5.21,9.16-7.73,19.76-7.73,31.86s2.52,22.78,7.48,31.86c5.04,9.16,12.11,16.22,21.35,21.35,9.25,5.13,20.34,7.65,33.29,7.65,14.96,0,26.82-3.19,35.56-9.5,8.74-6.31,14.29-14.46,16.56-24.55h1.85v32.11c0,9.67-1.35,17.23-3.95,22.7s-6.89,9.25-12.78,11.43c-5.88,2.19-13.87,3.28-23.87,3.28-9.33,0-16.81-.84-22.53-2.52-5.72-1.68-9.84-4.46-12.53-8.32-2.61-3.87-3.95-9-3.95-15.3h-28.16c0,10.51,2.77,19.5,8.32,26.9,5.55,7.4,13.2,13.03,23.03,16.98,9.84,3.95,21.27,5.97,34.22,5.97,14.21,0,26.65-2.19,37.16-6.56,10.51-4.37,18.75-11.18,24.55-20.43s8.66-21.1,8.66-35.73v-115.68h-26.06v32.7l.08.08Zm-13.7,52.96c-7.73,5.97-18.83,9-33.21,9-9,0-16.65-1.18-23.03-3.53-6.39-2.35-11.26-6.22-14.63-11.43-3.36-5.3-4.96-12.36-4.96-21.35s1.68-16.31,5.13-21.44c3.45-5.21,8.41-8.91,15.05-11.18,6.56-2.27,14.38-3.45,23.29-3.45s17.23,1.26,23.71,3.7c6.47,2.44,11.52,6.22,15.05,11.18,3.53,5.04,5.3,11.18,5.3,18.58v3.7c0,11.6-3.87,20.34-11.6,26.31l-.08-.08Z"/>
    <path class="cls-1" d="m1206.78,411.84c-7.82-4.2-17.65-7.4-29.42-9.5l-42.96-7.4c-6.81-1.6-12.44-3.28-16.9-5.13s-7.65-4.37-9.75-7.48c-2.1-3.19-3.19-7.23-3.19-12.11,0-5.46,1.51-9.92,4.46-13.28,2.94-3.45,7.73-6.05,14.38-7.73,6.56-1.77,15.22-2.61,25.98-2.61,12.27,0,22.03,1.18,29.26,3.53,7.23,2.35,12.36,5.97,15.55,10.84s4.71,10.84,4.71,18.07v3.45h28.16v-1.6c0-11.6-2.69-21.94-8.07-30.94-5.38-9-13.53-16.22-24.63-21.44-11.1-5.21-25.22-7.9-42.45-7.9-13.87,0-25.64,1.43-35.14,4.37-9.58,2.86-17.32,6.81-23.29,11.77-5.97,4.88-10.34,10.42-13.2,16.56s-4.2,12.36-4.2,18.75c0,9.67,2.19,17.74,6.47,24.13s10.34,11.52,18.07,15.3c7.73,3.78,16.48,6.64,26.31,8.57l43.21,7.15c11.1,2.1,19.08,4.96,23.96,8.41,4.88,3.45,7.4,9.16,7.4,16.9,0,5.46-1.43,10-4.37,13.53-2.86,3.61-7.65,6.22-14.38,7.9-6.64,1.68-15.64,2.52-26.9,2.52-13.03,0-23.2-1.18-30.6-3.53-7.4-2.35-12.61-5.88-15.8-10.51s-4.71-10.51-4.71-17.49v-4.2h-28.41v1.6c0,12.27,2.94,22.95,9,32.03,5.97,9.08,14.88,16.06,26.73,20.93,11.85,4.88,26.48,7.4,43.88,7.4s31.53-2.44,42.45-7.23c10.84-4.79,18.92-11.18,23.96-19.08,5.13-7.9,7.65-16.31,7.65-25.3s-1.93-16.14-5.8-22.7c-3.87-6.47-9.67-11.85-17.49-16.06l.08-.5Z"/>
    <path class="cls-1" d="m1288.83,339.88h-28.16v28.75h-22.11v23.71h22.11v62.97c0,15.8,4.12,27.15,12.27,33.96s19.25,10.26,33.29,10.26h30.01v-25.56h-23.71c-8.07,0-14.04-1.35-17.91-4.12-3.87-2.69-5.8-8.15-5.8-16.22v-61.37h47.41v-23.71h-47.41v-28.75.08Z"/>
    <path class="cls-1" d="m1459.57,374.6c-10.93-5.72-23.71-8.57-38.5-8.57s-27.07,2.86-38.08,8.57-19.5,13.62-25.56,23.88c-6.05,10.17-9.08,22.11-9.08,35.81s3.03,25.14,9.08,35.48c6.05,10.34,14.54,18.24,25.56,23.96s23.71,8.57,38.08,8.57,27.57-2.86,38.5-8.57c10.84-5.72,19.34-13.7,25.39-23.96,6.05-10.26,9.08-22.11,9.08-35.48s-3.03-25.64-9.08-35.81c-6.05-10.17-14.54-18.16-25.39-23.88Zm-3.95,91.46c-7.06,7.31-18.58,10.93-34.55,10.93s-27.24-3.61-34.3-10.93c-7.06-7.31-10.51-17.91-10.51-31.78s3.53-24.55,10.51-32.03c6.98-7.48,18.41-11.18,34.3-11.18s27.49,3.7,34.55,11.18c7.06,7.48,10.51,18.16,10.51,32.03s-3.53,24.46-10.51,31.78Z"/>
    <path class="cls-1" d="m1612.15,372.33c-6.31-4.2-14.46-6.31-24.55-6.31-9,0-16.56,1.68-22.78,5.04-6.22,3.36-11.18,7.9-14.88,13.53-3.7,5.72-6.14,12.19-7.4,19.34h-1.85v-35.31h-26.06v130.98h28.41v-73.56c0-11.6,2.44-20.43,7.4-26.65,4.88-6.14,13.03-9.25,24.21-9.25,9.84,0,16.9,2.19,21.1,6.56s6.31,11.35,6.31,20.85v11.6h28.16v-17.15c0-8.24-1.43-15.89-4.37-22.95-2.94-7.06-7.48-12.61-13.87-16.9l.17.17Z"/>
    <rect class="cls-1" x="1648.22" y="368.63" width="28.41" height="130.98"/>
    <rect class="cls-1" x="1648.22" y="323.07" width="28.41" height="30.26"/>
    <path class="cls-1" d="m1804.08,373.26c-10.26-4.79-22.19-7.23-35.73-7.23-14.21,0-26.65,2.86-37.16,8.57-10.51,5.72-18.75,13.62-24.63,23.88-5.88,10.17-8.83,22.11-8.83,35.81,0,14.38,2.94,26.73,8.83,36.91,5.88,10.17,14.21,17.91,24.88,23.2,10.68,5.3,23.2,7.9,37.41,7.9,13.03,0,24.46-2.02,34.38-5.97,9.92-3.95,17.74-9.5,23.45-16.65,5.72-7.15,8.57-15.3,8.57-24.63v-2.35h-28.5v2.1c0,7.73-3.03,13.79-9.08,18.07-6.05,4.29-15.97,6.47-29.68,6.47-15.8,0-27.07-3.61-33.71-10.84-6.05-6.56-9.25-15.97-9.75-27.91h110.97c.34-1.93.59-3.87.76-5.97.17-2.02.25-4.2.25-6.47,0-13.37-2.86-24.63-8.57-33.88-5.72-9.25-13.7-16.22-23.96-21.1l.08.08Zm-69.69,25.98c6.64-7.23,17.82-10.84,33.46-10.84,14.04,0,24.55,2.94,31.53,8.83,6.98,5.88,10.42,14.88,10.42,26.99v.5h-84.99c.84-10.76,3.95-19.42,9.67-25.56l-.08.08Z"/>
    <path class="cls-1" d="m1970.02,438.49c-7.4-5.63-18.83-9.42-34.22-11.35l-30.35-4.2c-9.67-1.43-16.22-3.28-19.76-5.55-3.53-2.27-5.3-5.97-5.3-11.1,0-6.14,2.35-10.59,7.15-13.45,4.71-2.77,13.2-4.2,25.3-4.2,9.67,0,17.15.92,22.53,2.77,5.38,1.85,9.08,4.54,11.18,8.07s3.19,7.82,3.19,12.95v1.6h28.16v-.76c0-10.34-2.61-19.08-7.73-26.06-5.21-7.06-12.53-12.27-22.11-15.8-9.58-3.53-21.02-5.3-34.38-5.3s-24.63,1.68-33.71,5.04c-9.16,3.36-15.97,7.99-20.6,13.87-4.54,5.88-6.81,12.69-6.81,20.43,0,11.1,3.53,19.34,10.51,24.88,6.98,5.55,16.81,9.08,29.26,10.68l35.81,4.71c9.5,1.26,16.06,3.03,19.59,5.3,3.61,2.27,5.38,6.14,5.38,11.6,0,5.8-2.35,10.09-6.98,12.78-4.62,2.69-13.37,4.12-26.23,4.12-13.7,0-23.45-1.6-29.09-4.88-5.72-3.28-8.57-9.16-8.57-17.82v-2.1h-28.5v.76c0,15.13,5.72,26.73,17.23,34.8,11.52,8.07,27.83,12.11,48.84,12.11,12.27,0,23.03-1.51,32.11-4.62,9.16-3.11,16.22-7.57,21.35-13.45,5.13-5.88,7.65-12.86,7.65-20.93,0-10.93-3.7-19.17-11.1-24.8l.17-.08Z"/>
  </g>
</svg>