<svg width="216" height="123" viewBox="0 0 216 123" fill="none" xmlns="http://www.w3.org/2000/svg">
<path d="M3.95126 32.1828C3.95126 29.9916 2.18217 28.2151 0 28.2151V0C17.7001 0 32.0488 14.4088 32.0488 32.1828V90.8172C32.0488 93.0084 33.8178 94.7849 36 94.7849C38.1822 94.7849 39.9512 93.0084 39.9512 90.8172V32.1828C39.9512 14.4088 54.3 0 72.0003 0C89.7001 0 104.049 14.4088 104.049 32.1828V90.8172C104.049 93.0084 105.818 94.7849 108 94.7849C110.182 94.7849 111.951 93.0084 111.951 90.8172V32.1828C111.951 14.4088 126.3 0 144 0C161.7 0 176.049 14.4088 176.049 32.1828V90.8172C176.049 93.0084 177.818 94.7849 180 94.7849C182.182 94.7849 183.952 93.0084 183.952 90.8172V32.1828C183.952 14.4088 198.3 0 216 0V28.2151C213.818 28.2151 212.049 29.9916 212.049 32.1828V90.8172C212.049 108.591 197.7 123 180 123C162.3 123 147.951 108.591 147.951 90.8172V32.1828C147.951 29.9916 146.182 28.2151 144 28.2151C141.818 28.2151 140.048 29.9916 140.048 32.1828V90.8172C140.048 108.591 125.7 123 108 123C90.3002 123 75.9516 108.591 75.9516 90.8172V32.1828C75.9516 29.9916 74.1822 28.2151 72.0003 28.2151C69.8175 28.2151 68.0489 29.9916 68.0489 32.1828V90.8172C68.0489 108.591 53.7 123 36 123C18.2999 123 3.95126 108.591 3.95126 90.8172V32.1828Z" fill="#2F6AD8"/>
</svg>
