<svg width="152" height="151" viewBox="0 0 152 151" fill="none" xmlns="http://www.w3.org/2000/svg">
<path d="M74.1776 1.78981C74.461 -0.596605 77.9238 -0.596605 78.2072 1.78981L80.5827 21.8097C83.65 47.6608 104.032 68.0424 129.882 71.1097L149.902 73.4852C152.289 73.7686 152.289 77.2314 149.902 77.5148L129.882 79.8903C104.032 82.9576 83.65 103.339 80.5827 129.19L78.2072 149.21C77.9238 151.597 74.461 151.597 74.1776 149.21L71.8021 129.19C68.7348 103.339 48.3532 82.9576 22.5021 79.8903L2.4822 77.5148C0.0957779 77.2314 0.0957779 73.7686 2.4822 73.4852L22.5021 71.1097C48.3532 68.0424 68.7348 47.6608 71.8021 21.8097L74.1776 1.78981Z" fill="#9DEF5D"/>
</svg>
