<svg width="151" height="151" viewBox="0 0 151 151" fill="none" xmlns="http://www.w3.org/2000/svg">
<path d="M73.4852 1.78981C73.7686 -0.596605 77.2314 -0.596605 77.5148 1.78981L79.8903 21.8097C82.9576 47.6608 103.339 68.0424 129.19 71.1097L149.21 73.4852C151.597 73.7686 151.597 77.2314 149.21 77.5148L129.19 79.8903C103.339 82.9576 82.9576 103.339 79.8903 129.19L77.5148 149.21C77.2314 151.597 73.7686 151.597 73.4852 149.21L71.1097 129.19C68.0424 103.339 47.6608 82.9576 21.8097 79.8903L1.78981 77.5148C-0.596605 77.2314 -0.596605 73.7686 1.78981 73.4852L21.8097 71.1097C47.6608 68.0424 68.0424 47.6608 71.1097 21.8097L73.4852 1.78981Z" fill="#9DEF5D"/>
</svg>
