<svg width="185" height="185" viewBox="0 0 185 185" fill="none" xmlns="http://www.w3.org/2000/svg">
<path fill-rule="evenodd" clip-rule="evenodd" d="M185 31.1175C185 46.5445 173.774 59.3492 159.045 61.8088C173.774 64.2683 185 77.0734 185 92.5C185 107.927 173.774 120.732 159.045 123.191C173.774 125.651 185 138.456 185 153.882C185 171.068 171.068 185 153.882 185C138.456 185 125.651 173.774 123.191 159.045C120.732 173.774 107.927 185 92.5 185C77.0734 185 64.2683 173.774 61.8088 159.045C59.3492 173.774 46.5445 185 31.1175 185C13.9318 185 0 171.068 0 153.882C0 138.456 11.2263 125.651 25.955 123.191C11.2263 120.732 0 107.927 0 92.5C0 77.0734 11.2263 64.2683 25.955 61.8088C11.2263 59.3492 0 46.5445 0 31.1175C0 13.9318 13.9318 0 31.1175 0C46.5445 0 59.3492 11.2263 61.8088 25.955C64.2683 11.2263 77.0734 0 92.5 0C107.927 0 120.732 11.2263 123.191 25.955C125.651 11.2263 138.456 0 153.882 0C171.068 0 185 13.9318 185 31.1175ZM61.8088 36.28C59.6297 49.3297 49.3297 59.6297 36.28 61.8088C49.3297 63.9878 59.6297 74.2882 61.8088 87.3379C63.9878 74.2882 74.2882 63.9878 87.3379 61.8088C74.2882 59.6297 63.9878 49.3297 61.8088 36.28ZM97.6621 61.8088C110.712 59.6297 121.012 49.3297 123.191 36.28C125.37 49.3297 135.671 59.6297 148.72 61.8088C135.671 63.9878 125.37 74.2882 123.191 87.3379C121.012 74.2882 110.712 63.9878 97.6621 61.8088ZM123.191 148.72C125.37 135.671 135.671 125.37 148.72 123.191C135.671 121.012 125.37 110.712 123.191 97.6621C121.012 110.712 110.712 121.012 97.6621 123.191C110.712 125.37 121.012 135.671 123.191 148.72ZM61.8088 97.6621C63.9878 110.712 74.2882 121.012 87.3379 123.191C74.2882 125.37 63.9878 135.671 61.8088 148.72C59.6297 135.671 49.3297 125.37 36.28 123.191C49.3297 121.012 59.6297 110.712 61.8088 97.6621Z" fill="#9DEF5D"/>
</svg>
