<svg width="107" height="26" viewBox="0 0 107 26" fill="none" xmlns="http://www.w3.org/2000/svg">
<g clip-path="url(#clip0_183_89)">
<path d="M0 25.9999V10.3496H18.1679V15.8492H6.20982V25.9999H0Z" fill="white"/>
<path d="M18.4747 0H0V5.43878H18.4747V0Z" fill="white"/>
<path d="M33.1522 0H39.3316V20.4838H49.7753V26H33.1522V0Z" fill="white"/>
<path d="M70.5991 0H64.3782V26H70.5991V0Z" fill="white"/>
<path d="M97.7847 0H85.3484V26H91.4035V16.8082H97.7847C102.425 16.8082 106.189 13.047 106.189 8.40412C106.189 3.76403 102.425 0 97.7847 0ZM97.0081 11.2064H91.4063V5.43878H97.0081C98.5999 5.43878 99.8905 6.72938 99.8905 8.32122C99.8905 9.91305 98.5999 11.2037 97.0081 11.2037V11.2064Z" fill="white"/>
</g>
<defs>
<clipPath id="clip0_183_89">
<rect width="106.189" height="26" fill="white"/>
</clipPath>
</defs>
</svg>
