<svg width="125" height="121" viewBox="0 0 125 121" fill="none" xmlns="http://www.w3.org/2000/svg">
<path d="M24.4241 117.503C27.6538 119.854 31.4034 120.989 35.1257 120.989C40.7275 120.989 46.256 118.419 49.8139 113.588C49.8241 113.578 49.8338 113.567 49.8429 113.555C49.8515 113.544 49.86 113.533 49.8681 113.522L49.8804 113.504C49.889 113.492 49.8971 113.48 49.9051 113.469L62.4953 96.1143L75.0854 113.469C75.0978 113.488 75.1106 113.502 75.123 113.518C75.1289 113.526 75.1342 113.533 75.1401 113.542C81.0704 121.639 92.4653 123.423 100.576 117.512C108.695 111.603 110.511 100.176 104.654 92.0159L104.641 91.9954C104.63 91.9782 104.621 91.9653 104.608 91.9519L92.0452 74.5876L112.399 67.946C121.96 64.8264 127.215 54.4795 124.104 44.8915C120.994 35.304 110.684 30.0345 101.114 33.1451L80.7603 39.7595L80.7512 18.2879C80.7415 8.20616 72.558 0 62.5044 0C52.4507 0 44.2672 8.20616 44.2581 18.297L44.2399 39.7504L23.8859 33.1359C23.8779 33.1359 23.8681 33.1341 23.8582 33.1313C23.8454 33.1278 23.8322 33.1227 23.822 33.1176C14.27 30.0437 3.9972 35.3132 0.895315 44.8829C-2.20662 54.4521 3.01195 64.7624 12.5274 67.9095C12.5362 67.9122 12.5441 67.9154 12.5517 67.9186L12.5852 67.9315L12.6005 67.9369L32.9452 74.5784L20.3825 91.9427C20.3779 91.9519 20.3712 91.961 20.3643 91.9702C20.3574 91.9793 20.3507 91.9885 20.3461 91.9976C14.4798 100.158 16.3045 111.594 24.4241 117.503Z" fill="#2F80ED"/>
</svg>
